<?xml version="1.0" encoding="UTF-8" standalone="no"?>
<svg
   xmlns:dc="http://purl.org/dc/elements/1.1/"
   xmlns:cc="http://creativecommons.org/ns#"
   xmlns:rdf="http://www.w3.org/1999/02/22-rdf-syntax-ns#"
   xmlns:svg="http://www.w3.org/2000/svg"
   xmlns="http://www.w3.org/2000/svg"
   xmlns:sodipodi="http://sodipodi.sourceforge.net/DTD/sodipodi-0.dtd"
   xmlns:inkscape="http://www.inkscape.org/namespaces/inkscape"
   viewBox="0 0 48 48"
   id="svg2"
   version="1.1"
   inkscape:version="0.48.5 r10040"
   width="100%"
   height="100%"
   sodipodi:docname="wine.svg">
  <metadata
     id="metadata85">
    <rdf:RDF>
      <cc:Work
         rdf:about="">
        <dc:format>image/svg+xml</dc:format>
        <dc:type
           rdf:resource="http://purl.org/dc/dcmitype/StillImage" />
        <dc:title></dc:title>
      </cc:Work>
    </rdf:RDF>
  </metadata>
  <sodipodi:namedview
     pagecolor="#ffffff"
     bordercolor="#666666"
     borderopacity="1"
     objecttolerance="10"
     gridtolerance="10"
     guidetolerance="10"
     inkscape:pageopacity="0"
     inkscape:pageshadow="2"
     inkscape:window-width="1244"
     inkscape:window-height="760"
     id="namedview83"
     showgrid="false"
     inkscape:zoom="11.313708"
     inkscape:cx="13.570175"
     inkscape:cy="24"
     inkscape:window-x="0"
     inkscape:window-y="30"
     inkscape:window-maximized="0"
     inkscape:current-layer="g55" />
  <defs
     id="defs4">
    <linearGradient
       id="linearGradient3764"
       x1="1"
       x2="47"
       gradientUnits="userSpaceOnUse"
       gradientTransform="translate(-48.000001,0.00221467)">
      <stop
         stop-color="#e4e4e4"
         stop-opacity="1"
         id="stop7" />
      <stop
         offset="1"
         stop-color="#eee"
         stop-opacity="1"
         id="stop9" />
    </linearGradient>
    <clipPath
       id="clipPath-534190635">
      <g
         transform="translate(0,-1004.3622)"
         id="g12">
        <rect
           rx="4"
           y="1005.36"
           x="1"
           height="46"
           width="46"
           fill="#1890d0"
           id="rect14" />
      </g>
    </clipPath>
    <clipPath
       id="clipPath-547550299">
      <g
         transform="translate(0,-1004.3622)"
         id="g17">
        <rect
           rx="4"
           y="1005.36"
           x="1"
           height="46"
           width="46"
           fill="#1890d0"
           id="rect19" />
      </g>
    </clipPath>
  </defs>
  <g
     id="g21">
    <path
       d="m 1 43 l 0 0.25 c 0 2.216 1.784 4 4 4 l 38 0 c 2.216 0 4 -1.784 4 -4 l 0 -0.25 c 0 2.216 -1.784 4 -4 4 l -38 0 c -2.216 0 -4 -1.784 -4 -4 z m 0 0.5 l 0 0.5 c 0 2.216 1.784 4 4 4 l 38 0 c 2.216 0 4 -1.784 4 -4 l 0 -0.5 c 0 2.216 -1.784 4 -4 4 l -38 0 c -2.216 0 -4 -1.784 -4 -4 z"
       opacity="0.02"
       id="path23" />
    <path
       d="m 1 43.25 l 0 0.25 c 0 2.216 1.784 4 4 4 l 38 0 c 2.216 0 4 -1.784 4 -4 l 0 -0.25 c 0 2.216 -1.784 4 -4 4 l -38 0 c -2.216 0 -4 -1.784 -4 -4 z"
       opacity="0.05"
       id="path25" />
    <path
       d="m 1 43 l 0 0.25 c 0 2.216 1.784 4 4 4 l 38 0 c 2.216 0 4 -1.784 4 -4 l 0 -0.25 c 0 2.216 -1.784 4 -4 4 l -38 0 c -2.216 0 -4 -1.784 -4 -4 z"
       opacity="0.1"
       id="path27" />
  </g>
  <g
     id="g29">
    <rect
       width="46"
       height="46"
       x="-47"
       y="1"
       rx="4"
       transform="matrix(0,-1,1,0,0,0)"
       fill="url(#linearGradient3764)"
       fill-opacity="1"
       id="rect31" />
  </g>
  <g
     id="g33">
    <g
       clip-path="url(#clipPath-534190635)"
       id="g35">
      <g
         opacity="0.1"
         id="g37">
        <!-- color: #eeeeee -->
        <g
           id="g39">
          <path
             d="m 24 0 l 0 24 l 24 0 l 0 -24 m -24 0"
             stroke="none"
             fill-rule="evenodd"
             fill-opacity="1"
             fill="#000"
             id="path41" />
          <path
             d="m 24 24 l 0 24 l 24 0 l 0 -24 m -24 0"
             stroke="none"
             fill-rule="evenodd"
             fill-opacity="1"
             fill="#000"
             id="path43" />
          <path
             d="m 0 24 l 0 24 l 24 0 l 0 -24 m -24 0"
             stroke="none"
             fill-rule="evenodd"
             fill-opacity="1"
             fill="#000"
             id="path45" />
          <path
             d="M 0 0 L 0 24 L 24 24 L 24 0 M 0 0 "
             stroke="none"
             fill-rule="evenodd"
             fill-opacity="1"
             fill="#000"
             id="path47" />
          <path
             d="m 32.395 12.01 c -0.961 0.02 -1.91 0.645 -2.063 1.844 c -0.242 1.902 1.578 1.188 3.03 1.188 c 1.453 0 1.941 3.09 1.574 4.754 c -0.363 1.664 -4.227 5.59 -12.969 1.664 c -7.195 -3.234 -10.789 1.07 -10.98 1.156 c 0.691 6.426 6.234 13.391 12.98 13.391 c 7.188 0 13.03 -7.68 13.03 -14.73 c 0 -0.809 -0.094 -1.609 -0.242 -2.375 c -0.133 -0.391 -0.266 -0.777 -0.363 -1.129 c -0.176 -0.633 -0.375 -1.168 -0.547 -1.664 c -0.008 -0.016 0.008 -0.043 0 -0.059 c -0.688 -1.5 -1.652 -2.852 -2.848 -3.98 c -0.004 -0.012 -0.027 0.008 -0.031 0 c -0.188 -0.047 -0.383 -0.063 -0.574 -0.063 m 0 0.004"
             stroke="none"
             fill-rule="nonzero"
             fill-opacity="1"
             fill="#000"
             id="path49" />
          <path
             d="m 30.395 16.527 c 0 0.395 -0.328 0.715 -0.727 0.715 c -0.402 0 -0.73 -0.32 -0.73 -0.715 c 0 -0.391 0.328 -0.711 0.73 -0.711 c 0.398 0 0.727 0.32 0.727 0.711 m 0 0"
             stroke="none"
             fill-rule="nonzero"
             fill-opacity="1"
             fill="#000"
             id="path51" />
          <path
             d="m 28.938 13.945 c 0 0.277 -0.23 0.504 -0.516 0.504 c -0.285 0 -0.516 -0.227 -0.516 -0.504 c 0 -0.281 0.23 -0.508 0.516 -0.508 c 0.285 0 0.516 0.227 0.516 0.508 m 0 0"
             stroke="none"
             fill-rule="nonzero"
             fill-opacity="1"
             fill="#000"
             id="path53" />
        </g>
      </g>
    </g>
  </g>
  <g
     id="g55">
    <g
       clip-path="url(#clipPath-547550299)"
       id="g57">
      <g
         transform="translate(0,-1)"
         id="g59">
        <!-- color: #eeeeee -->
        <g
           id="g61">
          <path
             d="m 24 0 l 0 24 l 24 0 l 0 -24 m -24 0"
             fill="#7fcc28"
             stroke="none"
             fill-rule="evenodd"
             fill-opacity="1"
             id="path63" />
          <path
             d="m 24 24 l 0 24 l 24 0 l 0 -24 m -24 0"
             fill="#fbb909"
             stroke="none"
             fill-rule="evenodd"
             fill-opacity="1"
             id="path65" />
          <path
             d="m 0 24 l 0 24 l 24 0 l 0 -24 m -24 0"
             fill="#00abec"
             stroke="none"
             fill-rule="evenodd"
             fill-opacity="1"
             id="path67" />
          <path
             d="M 0 0 L 0 24 L 24 24 L 24 0 M 0 0 "
             fill="#f15119"
             stroke="none"
             fill-rule="evenodd"
             fill-opacity="1"
             id="path69" />
        </g>
      </g>
    </g>
  </g>
  <g
     id="g77">
    <g
       transform="translate(0,-1004.3622)"
       id="g79">
      <path
         d="m 1 1043.36 0 4 c 0 2.216 1.784 4 4 4 l 38 0 c 2.216 0 4 -1.784 4 -4 l 0 -4 c 0 2.216 -1.784 4 -4 4 l -38 0 c -2.216 0 -4 -1.784 -4 -4 z"
         opacity="0.1"
         id="path81" />
    </g>
  </g>
</svg>
