<?xml version="1.0" encoding="UTF-8" standalone="no"?>
<!-- Generator: IcoMoon.io -->

<svg
   xmlns:dc="http://purl.org/dc/elements/1.1/"
   xmlns:cc="http://creativecommons.org/ns#"
   xmlns:rdf="http://www.w3.org/1999/02/22-rdf-syntax-ns#"
   xmlns:svg="http://www.w3.org/2000/svg"
   xmlns="http://www.w3.org/2000/svg"
   xmlns:sodipodi="http://sodipodi.sourceforge.net/DTD/sodipodi-0.dtd"
   xmlns:inkscape="http://www.inkscape.org/namespaces/inkscape"
   width="32"
   height="32"
   viewBox="0 0 32 32"
   fill="#000000"
   id="svg2"
   version="1.1"
   inkscape:version="0.91 r13725"
   sodipodi:docname="try-it.svg">
  <metadata
     id="metadata12">
    <rdf:RDF>
      <cc:Work
         rdf:about="">
        <dc:format>image/svg+xml</dc:format>
        <dc:type
           rdf:resource="http://purl.org/dc/dcmitype/StillImage" />
        <dc:title></dc:title>
      </cc:Work>
    </rdf:RDF>
  </metadata>
  <defs
     id="defs10" />
  <sodipodi:namedview
     pagecolor="#ffffff"
     bordercolor="#666666"
     borderopacity="1"
     objecttolerance="10"
     gridtolerance="10"
     guidetolerance="10"
     inkscape:pageopacity="0"
     inkscape:pageshadow="2"
     inkscape:window-width="1920"
     inkscape:window-height="1053"
     id="namedview8"
     showgrid="false"
     inkscape:zoom="7.375"
     inkscape:cx="16"
     inkscape:cy="16"
     inkscape:window-x="0"
     inkscape:window-y="0"
     inkscape:window-maximized="1"
     inkscape:current-layer="svg2" />
  <g
     id="g4"
     style="fill:#9b7eff;fill-opacity:0.94117647">
    <path
       d="M 30,2L 2,2 C 0.896,2,0,2.896,0,4l0,18 c0,1.104, 0.896,2, 2,2l 9.998,0 c-0.004,1.446-0.062,3.324-0.61,4L 10.984,28 C 10.44,28, 10,28.448, 10,29C 10,29.552, 10.44,30, 10.984,30l 10.030,0 C 21.56,30, 22,29.552, 22,29c0-0.552-0.44-1-0.984-1l-0.404,0 c-0.55-0.676-0.606-2.554-0.61-4L 30,24 c 1.104,0, 2-0.896, 2-2L 32,4 C 32,2.896, 31.104,2, 30,2z M 14,24l-0.002,0.004 C 13.998,24.002, 13.998,24.002, 14,24L 14,24z M 18.002,24.004L 18,24l 0.002,0 C 18.002,24.002, 18.002,24.002, 18.002,24.004z M 30,20L 2,20 L 2,4 l 28,0 L 30,20 z"
       id="path6"
       style="fill:#9b7eff;fill-opacity:0.94117647" />
  </g>
</svg>
