<?xml version="1.0" standalone="no"?>
<!DOCTYPE svg PUBLIC "-//W3C//DTD SVG 20010904//EN"
 "http://www.w3.org/TR/2001/REC-SVG-20010904/DTD/svg10.dtd">
<svg version="1.0" xmlns="http://www.w3.org/2000/svg"
 width="512.000000pt" height="512.000000pt" viewBox="0 0 512.000000 512.000000"
 preserveAspectRatio="xMidYMid meet">
<metadata>
Created by potrace 1.11, written by Peter Selinger 2001-2013
</metadata>
<g transform="translate(0.000000,512.000000) scale(0.100000,-0.100000)"
fill="#330033" stroke="none">
<path d="M2270 4734 c-45 -20 -77 -50 -100 -95 -15 -29 -22 -84 -34 -265 -9
-125 -16 -231 -16 -235 0 -4 -42 -21 -93 -38 -51 -17 -131 -51 -178 -74 l-84
-42 -168 153 c-92 84 -183 160 -202 168 -48 20 -121 18 -169 -6 -55 -26 -380
-353 -401 -402 -19 -46 -19 -118 -1 -162 8 -18 84 -109 169 -202 l154 -168
-47 -96 c-26 -52 -60 -132 -74 -177 -15 -46 -31 -83 -34 -83 -4 0 -110 -7
-235 -15 -243 -16 -275 -24 -324 -77 -49 -52 -53 -80 -53 -353 0 -273 4 -301
53 -353 49 -53 81 -61 324 -77 125 -8 231 -15 234 -15 4 0 21 -42 39 -93 17
-50 51 -130 75 -177 l42 -85 -158 -172 c-102 -112 -161 -185 -169 -209 -19
-56 -8 -136 24 -182 45 -65 350 -361 389 -377 45 -19 117 -19 160 -2 18 8 109
84 202 169 l170 155 85 -42 c47 -24 125 -57 175 -74 49 -18 90 -33 92 -35 1
-1 10 -107 18 -236 17 -247 24 -278 77 -327 52 -49 80 -53 353 -53 273 0 301
4 353 53 53 49 61 81 77 324 8 125 15 231 15 234 0 4 42 21 93 39 50 17 130
51 177 75 l85 42 170 -155 c94 -85 184 -161 202 -168 43 -18 115 -18 160 1 39
16 344 312 389 377 32 46 43 126 24 182 -8 24 -67 97 -169 209 l-158 172 42
85 c24 47 58 127 75 177 18 51 35 93 39 93 3 0 109 7 234 15 243 16 275 24
324 77 49 52 53 80 53 353 0 273 -4 301 -53 353 -49 53 -81 61 -324 77 -125 8
-231 15 -235 15 -4 0 -14 21 -21 48 -20 65 -84 218 -112 267 l-24 40 156 169
c85 93 161 184 169 202 18 44 18 116 -1 162 -21 49 -346 376 -401 402 -47 23
-121 26 -168 6 -19 -8 -110 -83 -203 -168 l-168 -153 -84 42 c-47 23 -127 57
-178 74 -51 17 -93 34 -93 37 0 4 -7 110 -15 235 -16 243 -24 275 -77 324 -52
49 -79 53 -355 53 -208 -1 -265 -4 -293 -16z m535 -1222 c349 -97 603 -345
701 -687 31 -109 43 -292 25 -403 -75 -479 -485 -832 -966 -832 -406 0 -777
258 -914 636 -70 192 -80 415 -27 599 100 345 372 609 711 688 109 26 112 26
260 22 98 -3 161 -10 210 -23z"/>
<path d="M2435 3156 c-420 -98 -609 -580 -365 -935 73 -108 185 -190 312 -232
59 -19 94 -24 183 -24 89 0 124 5 183 24 80 26 175 82 236 139 58 56 130 171
157 253 34 105 34 263 0 368 -59 181 -202 325 -383 388 -90 31 -234 40 -323
19z m190 -367 c96 -24 169 -121 169 -224 0 -203 -238 -305 -387 -166 -113 104
-88 298 48 368 64 34 103 39 170 22z"/>
</g>
</svg>
