<?xml version="1.0" encoding="UTF-8" standalone="no"?>
<svg
   xmlns:dc="http://purl.org/dc/elements/1.1/"
   xmlns:cc="http://creativecommons.org/ns#"
   xmlns:rdf="http://www.w3.org/1999/02/22-rdf-syntax-ns#"
   xmlns:svg="http://www.w3.org/2000/svg"
   xmlns="http://www.w3.org/2000/svg"
   xmlns:sodipodi="http://sodipodi.sourceforge.net/DTD/sodipodi-0.dtd"
   xmlns:inkscape="http://www.inkscape.org/namespaces/inkscape"
   viewBox="0 0 48 48"
   id="svg2"
   version="1.1"
   inkscape:version="0.91 r13725"
   sodipodi:docname="grsync-restore.svg">
  <metadata
     id="metadata69">
    <rdf:RDF>
      <cc:Work
         rdf:about="">
        <dc:format>image/svg+xml</dc:format>
        <dc:type
           rdf:resource="http://purl.org/dc/dcmitype/StillImage" />
        <dc:title></dc:title>
      </cc:Work>
    </rdf:RDF>
  </metadata>
  <sodipodi:namedview
     pagecolor="#ffffff"
     bordercolor="#666666"
     borderopacity="1"
     objecttolerance="10"
     gridtolerance="10"
     guidetolerance="10"
     inkscape:pageopacity="0"
     inkscape:pageshadow="2"
     inkscape:window-width="850"
     inkscape:window-height="626"
     id="namedview67"
     showgrid="false"
     inkscape:zoom="4.9166667"
     inkscape:cx="24"
     inkscape:cy="24"
     inkscape:window-x="0"
     inkscape:window-y="55"
     inkscape:window-maximized="0"
     inkscape:current-layer="svg2" />
  <defs
     id="defs4">
    <linearGradient
       id="linearGradient3764"
       x1="1"
       x2="47"
       gradientUnits="userSpaceOnUse"
       gradientTransform="matrix(0,-1,1,0,-1.5e-6,47.999998)">
      <stop
         stop-color="#5d873f"
         stop-opacity="1"
         id="stop7" />
      <stop
         offset="1"
         stop-color="#679445"
         stop-opacity="1"
         id="stop9" />
    </linearGradient>
    <clipPath
       id="clipPath-991810507">
      <g
         transform="translate(0,-1004.3622)"
         id="g12">
        <path
           d="m -24 13 c 0 1.105 -0.672 2 -1.5 2 -0.828 0 -1.5 -0.895 -1.5 -2 0 -1.105 0.672 -2 1.5 -2 0.828 0 1.5 0.895 1.5 2 z"
           transform="matrix(15.333333,0,0,11.5,414.99999,878.8622)"
           fill="#1890d0"
           id="path14" />
      </g>
    </clipPath>
    <clipPath
       id="clipPath-999075525">
      <g
         transform="translate(0,-1004.3622)"
         id="g17">
        <path
           d="m -24 13 c 0 1.105 -0.672 2 -1.5 2 -0.828 0 -1.5 -0.895 -1.5 -2 0 -1.105 0.672 -2 1.5 -2 0.828 0 1.5 0.895 1.5 2 z"
           transform="matrix(15.333333,0,0,11.5,414.99999,878.8622)"
           fill="#1890d0"
           id="path19" />
      </g>
    </clipPath>
  </defs>
  <g
     id="g21">
    <path
       d="m 36.31 5 c 5.859 4.062 9.688 10.831 9.688 18.5 c 0 12.426 -10.07 22.5 -22.5 22.5 c -7.669 0 -14.438 -3.828 -18.5 -9.688 c 1.037 1.822 2.306 3.499 3.781 4.969 c 4.085 3.712 9.514 5.969 15.469 5.969 c 12.703 0 23 -10.298 23 -23 c 0 -5.954 -2.256 -11.384 -5.969 -15.469 c -1.469 -1.475 -3.147 -2.744 -4.969 -3.781 z m 4.969 3.781 c 3.854 4.113 6.219 9.637 6.219 15.719 c 0 12.703 -10.297 23 -23 23 c -6.081 0 -11.606 -2.364 -15.719 -6.219 c 4.16 4.144 9.883 6.719 16.219 6.719 c 12.703 0 23 -10.298 23 -23 c 0 -6.335 -2.575 -12.06 -6.719 -16.219 z"
       id="path23"
       opacity="0.05" />
    <path
       d="m 41.28 8.781 c 3.712 4.085 5.969 9.514 5.969 15.469 c 0 12.703 -10.297 23 -23 23 c -5.954 0 -11.384 -2.256 -15.469 -5.969 c 4.113 3.854 9.637 6.219 15.719 6.219 c 12.703 0 23 -10.298 23 -23 c 0 -6.081 -2.364 -11.606 -6.219 -15.719 z"
       id="path25"
       opacity="0.1" />
    <path
       d="m 31.25 2.375 c 8.615 3.154 14.75 11.417 14.75 21.13 c 0 12.426 -10.07 22.5 -22.5 22.5 c -9.708 0 -17.971 -6.135 -21.12 -14.75 a 23 23 0 0 0 44.875 -7 a 23 23 0 0 0 -16 -21.875 z"
       id="path27"
       opacity="0.2" />
  </g>
  <g
     id="g29">
    <path
       d="m 24 1 c 12.703 0 23 10.297 23 23 c 0 12.703 -10.297 23 -23 23 -12.703 0 -23 -10.297 -23 -23 0 -12.703 10.297 -23 23 -23 z"
       id="path31"
       fill-opacity="1"
       fill="url(#linearGradient3764)" />
  </g>
  <g
     id="g33" />
  <g
     id="g35"
     transform="matrix(-1,0,0,1,49.998,0)">
    <g
       clip-path="url(#clipPath-991810507)"
       id="g37">
      <g
         transform="translate(1,1)"
         id="g39">
        <g
           id="g41"
           style="opacity:0.1">
          <!-- color: #679445 -->
          <g
             id="g43">
            <path
               d="M 23.988,9 C 15.726,9 9,15.699 9,23.984 c 0,8.289 6.727,15.01 14.988,15.01 8.262,0 15.01,-6.723 15.01,-15.01 C 38.998,15.695 32.248,9 23.988,9 m 0,2 c 7.211,0 13.02,5.809 13.02,12.984 0,7.176 -5.813,13.02 -13.02,13.02 -7.211,0 -12.996,-5.84 -12.996,-13.02 C 10.992,16.808 16.773,11 23.988,11 m 0,0"
               id="path45"
               inkscape:connector-curvature="0"
               style="fill:#000000;fill-opacity:0.50199998;fill-rule:nonzero;stroke:none" />
            <path
               d="M 23.988,9 C 15.726,9 9,15.699 9,23.984 l 1.992,0 C 10.992,16.808 16.773,11 23.988,11 c 7.211,0 13.02,5.809 13.02,12.984 l 0,0.137 C 36.93,31.246 31.149,37 23.988,37 l 0,1.996 c 8.262,0 15.01,-6.723 15.01,-15.01 0,-8.289 -6.75,-14.977 -15.01,-14.977 m 0,0"
               id="path47"
               inkscape:connector-curvature="0"
               style="fill:#000000;fill-opacity:1;fill-rule:nonzero;stroke:none" />
            <path
               d="M 9.563,20 C 9.211,21.273 9,22.617 9,24 c 0,1.727 0.305,3.395 0.844,4.938 l 0.156,0.063 6,-9 m -6.438,0"
               id="path49"
               inkscape:connector-curvature="0"
               style="fill:#000000;fill-opacity:1;fill-rule:nonzero;stroke:none" />
          </g>
        </g>
      </g>
    </g>
  </g>
  <g
     id="g51"
     transform="matrix(-1,0,0,1,47.998,0)">
    <g
       clip-path="url(#clipPath-999075525)"
       id="g53">
      <!-- color: #679445 -->
      <g
         id="g55">
        <path
           d="M 23.988,9 C 15.726,9 9,15.699 9,23.984 c 0,8.289 6.727,15.01 14.988,15.01 8.262,0 15.01,-6.723 15.01,-15.01 C 38.998,15.695 32.248,9 23.988,9 m 0,2 c 7.211,0 13.02,5.809 13.02,12.984 0,7.176 -5.813,13.02 -13.02,13.02 -7.211,0 -12.996,-5.84 -12.996,-13.02 C 10.992,16.808 16.773,11 23.988,11 m 0,0"
           id="path57"
           inkscape:connector-curvature="0"
           style="fill:#f9f9f9;fill-opacity:0.50199998;fill-rule:nonzero;stroke:none" />
        <path
           d="M 23.988,9 C 15.726,9 9,15.699 9,23.984 l 1.992,0 C 10.992,16.808 16.773,11 23.988,11 c 7.211,0 13.02,5.809 13.02,12.984 l 0,0.137 C 36.93,31.246 31.149,37 23.988,37 l 0,1.996 c 8.262,0 15.01,-6.723 15.01,-15.01 0,-8.289 -6.75,-14.977 -15.01,-14.977 m 0,0"
           id="path59"
           inkscape:connector-curvature="0"
           style="fill:#f9f9f9;fill-opacity:1;fill-rule:nonzero;stroke:none" />
        <path
           d="M 9.563,20 C 9.211,21.273 9,22.617 9,24 c 0,1.727 0.305,3.395 0.844,4.938 l 0.156,0.063 6,-9 m -6.438,0"
           id="path61"
           inkscape:connector-curvature="0"
           style="fill:#f9f9f9;fill-opacity:1;fill-rule:nonzero;stroke:none" />
      </g>
    </g>
  </g>
  <g
     id="g63">
    <path
       d="m 40.03 7.531 c 3.712 4.084 5.969 9.514 5.969 15.469 0 12.703 -10.297 23 -23 23 c -5.954 0 -11.384 -2.256 -15.469 -5.969 4.178 4.291 10.01 6.969 16.469 6.969 c 12.703 0 23 -10.298 23 -23 0 -6.462 -2.677 -12.291 -6.969 -16.469 z"
       id="path65"
       opacity="0.1" />
  </g>
</svg>
